<mxfile host="app.diagrams.net" modified="2021-08-30T15:33:30.290Z" agent="5.0 (X11; Linux x86_64) AppleWebKit/537.36 (KHTML, like Gecko) Chrome/91.0.4472.124 Safari/537.36" etag="FlsGtWNvduUO-lupQ2Lz" version="15.0.3" type="github">
  <diagram id="tRVBI7g8c5S8XRAwuuGp" name="Page-1">
    <mxGraphModel dx="741" dy="565" grid="1" gridSize="10" guides="1" tooltips="1" connect="1" arrows="1" fold="1" page="1" pageScale="1" pageWidth="827" pageHeight="1169" math="0" shadow="0">
      <root>
        <mxCell id="0" />
        <mxCell id="1" parent="0" />
        <mxCell id="VVZq8bXRt8sr8At-pmAZ-1" value="single page" style="swimlane;" parent="1" vertex="1">
          <mxGeometry x="134" y="250" width="200" height="200" as="geometry" />
        </mxCell>
        <mxCell id="VVZq8bXRt8sr8At-pmAZ-2" value="" style="rounded=0;whiteSpace=wrap;html=1;" parent="VVZq8bXRt8sr8At-pmAZ-1" vertex="1">
          <mxGeometry x="40" y="80" width="120" height="70" as="geometry" />
        </mxCell>
        <mxCell id="VVZq8bXRt8sr8At-pmAZ-4" value="key" style="rounded=0;whiteSpace=wrap;html=1;" parent="VVZq8bXRt8sr8At-pmAZ-1" vertex="1">
          <mxGeometry x="45" y="90" width="110" height="20" as="geometry" />
        </mxCell>
        <mxCell id="VVZq8bXRt8sr8At-pmAZ-5" value="login" style="rounded=0;whiteSpace=wrap;html=1;" parent="VVZq8bXRt8sr8At-pmAZ-1" vertex="1">
          <mxGeometry x="115" y="120" width="40" height="20" as="geometry" />
        </mxCell>
        <mxCell id="VVZq8bXRt8sr8At-pmAZ-3" value="" style="shape=flexArrow;endArrow=classic;html=1;" parent="1" edge="1">
          <mxGeometry width="50" height="50" relative="1" as="geometry">
            <mxPoint x="354" y="350" as="sourcePoint" />
            <mxPoint x="454" y="350" as="targetPoint" />
            <Array as="points">
              <mxPoint x="394" y="350" />
            </Array>
          </mxGeometry>
        </mxCell>
        <mxCell id="VVZq8bXRt8sr8At-pmAZ-8" value="decrypted page" style="swimlane;" parent="1" vertex="1">
          <mxGeometry x="494" y="250" width="200" height="200" as="geometry" />
        </mxCell>
        <mxCell id="VVZq8bXRt8sr8At-pmAZ-12" value="&lt;h1&gt;Heading&lt;/h1&gt;&lt;p&gt;Lorem ipsum dolor sit amet, consectetur adipisicing elit, sed do eiusmod tempor incididunt ut labore et dolore magna aliqua.&lt;/p&gt;" style="text;html=1;strokeColor=none;fillColor=none;spacing=5;spacingTop=-20;whiteSpace=wrap;overflow=hidden;rounded=0;" parent="VVZq8bXRt8sr8At-pmAZ-8" vertex="1">
          <mxGeometry x="5" y="30" width="190" height="120" as="geometry" />
        </mxCell>
        <mxCell id="VVZq8bXRt8sr8At-pmAZ-15" style="edgeStyle=orthogonalEdgeStyle;rounded=0;orthogonalLoop=1;jettySize=auto;html=1;exitX=0.5;exitY=0.5;exitDx=0;exitDy=0;exitPerimeter=0;" parent="1" source="VVZq8bXRt8sr8At-pmAZ-13" target="VVZq8bXRt8sr8At-pmAZ-4" edge="1">
          <mxGeometry relative="1" as="geometry" />
        </mxCell>
        <mxCell id="VVZq8bXRt8sr8At-pmAZ-13" value="Actor" style="shape=umlActor;verticalLabelPosition=bottom;verticalAlign=top;html=1;" parent="1" vertex="1">
          <mxGeometry x="30" y="260" width="30" height="60" as="geometry" />
        </mxCell>
        <mxCell id="VVZq8bXRt8sr8At-pmAZ-14" value="" style="verticalLabelPosition=bottom;verticalAlign=top;html=1;shape=mxgraph.basic.tick;fillColor=#d5e8d4;strokeColor=#82b366;" parent="1" vertex="1">
          <mxGeometry x="390" y="280" width="34" height="40" as="geometry" />
        </mxCell>
      </root>
    </mxGraphModel>
  </diagram>
</mxfile>
